<mxfile host="65bd71144e" modified="2020-10-28T01:33:48.594Z" agent="5.0 (Windows NT 10.0; Win64; x64) AppleWebKit/537.36 (KHTML, like Gecko) Code/1.50.1 Chrome/83.0.4103.122 Electron/9.2.1 Safari/537.36" etag="zMbEyEfmgnqYklsXxrHv" version="13.6.5">
    <diagram id="nBwtx5O17io5sNKS_FAY" name="ページ1">
        <mxGraphModel dx="1120" dy="574" grid="1" gridSize="10" guides="1" tooltips="1" connect="1" arrows="1" fold="1" page="1" pageScale="1" pageWidth="827" pageHeight="1169" math="0" shadow="0">
            <root>
                <mxCell id="0"/>
                <mxCell id="1" parent="0"/>
                <mxCell id="48" value="" style="endArrow=classic;html=1;entryX=0.178;entryY=0.497;entryDx=0;entryDy=0;entryPerimeter=0;" parent="1" target="66" edge="1">
                    <mxGeometry width="50" height="50" relative="1" as="geometry">
                        <mxPoint x="200" y="191" as="sourcePoint"/>
                        <mxPoint x="620" y="190" as="targetPoint"/>
                    </mxGeometry>
                </mxCell>
                <mxCell id="51" value="" style="endArrow=none;html=1;" parent="1" edge="1">
                    <mxGeometry width="50" height="50" relative="1" as="geometry">
                        <mxPoint x="250" y="600" as="sourcePoint"/>
                        <mxPoint x="250" y="190" as="targetPoint"/>
                    </mxGeometry>
                </mxCell>
                <mxCell id="59" value="" style="endArrow=classic;html=1;entryX=-0.016;entryY=0.105;entryDx=0;entryDy=0;entryPerimeter=0;" parent="1" edge="1">
                    <mxGeometry width="50" height="50" relative="1" as="geometry">
                        <mxPoint x="770" y="599.5600000000001" as="sourcePoint"/>
                        <mxPoint x="935.23" y="599.5" as="targetPoint"/>
                    </mxGeometry>
                </mxCell>
                <mxCell id="60" value="設定モーダル画面" style="swimlane;fontStyle=0;childLayout=stackLayout;horizontal=1;startSize=26;horizontalStack=0;resizeParent=1;resizeParentMax=0;resizeLast=0;collapsible=1;marginBottom=0;align=center;fontSize=14;" parent="1" vertex="1">
                    <mxGeometry x="40" y="80" width="160" height="240" as="geometry"/>
                </mxCell>
                <mxCell id="61" value="表示&#10;・環境設定&#10;・ガイドライン&#10;・ログアウト&#10;&#10;入力&#10;&#10;&#10;操作&#10;・「環境設定」タブを押す&#10;・「ガイドライン」&#10;　タブを押す&#10;・「ログアウト」&#10;　タブを押す&#10;" style="text;strokeColor=none;fillColor=none;spacingLeft=4;spacingRight=4;overflow=hidden;rotatable=0;points=[[0,0.5],[1,0.5]];portConstraint=eastwest;fontSize=12;" parent="60" vertex="1">
                    <mxGeometry y="26" width="160" height="214" as="geometry"/>
                </mxCell>
                <mxCell id="66" value="" style="verticalLabelPosition=bottom;verticalAlign=top;html=1;shape=mxgraph.basic.8_point_star;fillColor=#FFFFFF;" parent="1" vertex="1">
                    <mxGeometry x="460" y="140" width="190" height="100" as="geometry"/>
                </mxCell>
                <mxCell id="67" value="「環境設定」ボタンを押す" style="text;html=1;strokeColor=none;fillColor=none;align=center;verticalAlign=middle;whiteSpace=wrap;rounded=0;" parent="1" vertex="1">
                    <mxGeometry x="490" y="170" width="120" height="40" as="geometry"/>
                </mxCell>
                <mxCell id="68" value="" style="endArrow=classic;html=1;exitX=1;exitY=0.5;exitDx=0;exitDy=0;" parent="1" source="67" edge="1">
                    <mxGeometry width="50" height="50" relative="1" as="geometry">
                        <mxPoint x="827" y="160" as="sourcePoint"/>
                        <mxPoint x="940" y="190" as="targetPoint"/>
                    </mxGeometry>
                </mxCell>
                <mxCell id="30" value="環境設定画面" style="swimlane;fontStyle=0;childLayout=stackLayout;horizontal=1;startSize=26;horizontalStack=0;resizeParent=1;resizeParentMax=0;resizeLast=0;collapsible=1;marginBottom=0;align=center;fontSize=14;" parent="1" vertex="1">
                    <mxGeometry x="938.75" y="120" width="210" height="240" as="geometry"/>
                </mxCell>
                <mxCell id="31" value="表示&#10;・テーマ選択&#10;・ホワイト　・ダーク&#10;・住所表示選択&#10;・表示　・非表示&#10;・電話番号選択&#10;・表示　・非表示&#10;・設定を保存する&#10;&#10;入力&#10;&#10;操作&#10;・各ラジオボタンを押す&#10;・「設定を保存する」ボタンを押す&#10;" style="text;strokeColor=none;fillColor=none;spacingLeft=4;spacingRight=4;overflow=hidden;rotatable=0;points=[[0,0.5],[1,0.5]];portConstraint=eastwest;fontSize=12;" parent="30" vertex="1">
                    <mxGeometry y="26" width="210" height="214" as="geometry"/>
                </mxCell>
                <mxCell id="70" value="" style="verticalLabelPosition=bottom;verticalAlign=top;html=1;shape=mxgraph.basic.8_point_star;fillColor=#FFFFFF;" parent="1" vertex="1">
                    <mxGeometry x="455" y="380" width="200" height="100" as="geometry"/>
                </mxCell>
                <mxCell id="71" value="「ガイドライン」ボタンを押す" style="text;html=1;strokeColor=none;fillColor=none;align=center;verticalAlign=middle;whiteSpace=wrap;rounded=0;" parent="1" vertex="1">
                    <mxGeometry x="485" y="410" width="140" height="40" as="geometry"/>
                </mxCell>
                <mxCell id="72" value="" style="endArrow=classic;html=1;exitX=0.81;exitY=0.495;exitDx=0;exitDy=0;exitPerimeter=0;entryX=-0.016;entryY=0.232;entryDx=0;entryDy=0;entryPerimeter=0;" parent="1" source="70" target="45" edge="1">
                    <mxGeometry width="50" height="50" relative="1" as="geometry">
                        <mxPoint x="840" y="330" as="sourcePoint"/>
                        <mxPoint x="830" y="339" as="targetPoint"/>
                    </mxGeometry>
                </mxCell>
                <mxCell id="73" value="" style="endArrow=classic;html=1;" parent="1" edge="1">
                    <mxGeometry width="50" height="50" relative="1" as="geometry">
                        <mxPoint x="250" y="600" as="sourcePoint"/>
                        <mxPoint x="480" y="600" as="targetPoint"/>
                    </mxGeometry>
                </mxCell>
                <mxCell id="74" value="" style="verticalLabelPosition=bottom;verticalAlign=top;html=1;shape=mxgraph.basic.8_point_star;fillColor=#FFFFFF;" parent="1" vertex="1">
                    <mxGeometry x="450" y="550" width="180" height="100" as="geometry"/>
                </mxCell>
                <mxCell id="75" value="「ログアウト」ボタンを押す" style="text;html=1;strokeColor=none;fillColor=none;align=center;verticalAlign=middle;whiteSpace=wrap;rounded=0;" parent="1" vertex="1">
                    <mxGeometry x="495" y="590" width="90" height="20" as="geometry"/>
                </mxCell>
                <mxCell id="76" value="" style="endArrow=classic;html=1;exitX=0.798;exitY=0.512;exitDx=0;exitDy=0;exitPerimeter=0;" parent="1" source="74" target="77" edge="1">
                    <mxGeometry width="50" height="50" relative="1" as="geometry">
                        <mxPoint x="700" y="480" as="sourcePoint"/>
                        <mxPoint x="680" y="501" as="targetPoint"/>
                    </mxGeometry>
                </mxCell>
                <mxCell id="77" value="ログアウト処理" style="ellipse;whiteSpace=wrap;html=1;" parent="1" vertex="1">
                    <mxGeometry x="670" y="560" width="100" height="80" as="geometry"/>
                </mxCell>
                <mxCell id="79" value="ログイン画面" style="swimlane;fontStyle=0;childLayout=stackLayout;horizontal=1;startSize=26;horizontalStack=0;resizeParent=1;resizeParentMax=0;resizeLast=0;collapsible=1;marginBottom=0;align=center;fontSize=14;" parent="1" vertex="1">
                    <mxGeometry x="938.75" y="530" width="171.25" height="250" as="geometry"/>
                </mxCell>
                <mxCell id="80" value="表示&#10;・ログイン&#10;・サインイン&#10;・アカウント作成&#10;・パスワードを忘れた場合&#10;&#10;入力&#10;&#10;操作&#10;・サインインボタンを押す&#10;・「アカウント作成」&#10;　リンクを押す&#10;・「パスワードを忘れた場合」&#10;　リンクを押す" style="text;strokeColor=none;fillColor=none;spacingLeft=4;spacingRight=4;overflow=hidden;rotatable=0;points=[[0,0.5],[1,0.5]];portConstraint=eastwest;fontSize=12;" parent="79" vertex="1">
                    <mxGeometry y="26" width="171.25" height="224" as="geometry"/>
                </mxCell>
                <mxCell id="82" value="" style="endArrow=classic;html=1;" parent="1" edge="1">
                    <mxGeometry width="50" height="50" relative="1" as="geometry">
                        <mxPoint x="250" y="429.5" as="sourcePoint"/>
                        <mxPoint x="480" y="429.5" as="targetPoint"/>
                    </mxGeometry>
                </mxCell>
                <mxCell id="44" value="ガイドライン画面" style="swimlane;fontStyle=0;childLayout=stackLayout;horizontal=1;startSize=26;horizontalStack=0;resizeParent=1;resizeParentMax=0;resizeLast=0;collapsible=1;marginBottom=0;align=center;fontSize=14;" parent="1" vertex="1">
                    <mxGeometry x="938.75" y="380" width="160" height="120" as="geometry"/>
                </mxCell>
                <mxCell id="45" value="表示&#10;・ガイドライン&#10;入力&#10;&#10;操作&#10;" style="text;strokeColor=none;fillColor=none;spacingLeft=4;spacingRight=4;overflow=hidden;rotatable=0;points=[[0,0.5],[1,0.5]];portConstraint=eastwest;fontSize=12;" parent="44" vertex="1">
                    <mxGeometry y="26" width="160" height="94" as="geometry"/>
                </mxCell>
            </root>
        </mxGraphModel>
    </diagram>
</mxfile>